# xmcd CD database file
#
# Track frame offsets:
#	150
#	14670
#	30927
#	49736
#	64328
#	79958
#	90080
#	108399
#	122191
#	136718
#	154640
#
# Disc length: 2212 seconds
#
# Revision: 4
# Processed by: cddbd v1.4PL0 Copyright (c) Steve Scherf et al.
# Submitted via: CDex 1.50Beta7
#
DISCID=8208a20b
DTITLE=Randy Travis - Greatest Hits Volume Two
DYEAR=1992
DGENRE=Country
TTITLE0=Look Heart, No Hands
TTITLE1=Forever and Ever, Amen
TTITLE2=No Place Like Home
TTITLE3=Is It Still Over
TTITLE4=He Walked on Water
TTITLE5=Take Another Swing at Me
TTITLE6=Promises
TTITLE7=Diggin' Up Bones
TTITLE8=I Won't Need You Anymore
TTITLE9=It's Just A Matter of Time
TTITLE10=I'd Do It All Again with You
EXTD=YEAR: 1992
EXTT0=
EXTT1=
EXTT2=
EXTT3=
EXTT4=
EXTT5=
EXTT6=
EXTT7=
EXTT8=
EXTT9=
EXTT10=
PLAYORDER=
